<?xml version="1.0" encoding="UTF-8"?>
<svg xmlns="http://www.w3.org/2000/svg" viewBox="0 0 1024 1024" role="img" aria-labelledby="title description">
  <title id="title">Spatial Chopper Toy front icon layer</title>
  <desc id="description">A cheerful orange and yellow cartoon toy helicopter on a transparent canvas.</desc>
  <defs>
    <linearGradient id="body" x1="0" y1="0" x2="0.85" y2="1">
      <stop offset="0" stop-color="#FFB338"/>
      <stop offset="0.5" stop-color="#F27624"/>
      <stop offset="1" stop-color="#D94A24"/>
    </linearGradient>
    <linearGradient id="cockpit" x1="0.2" y1="0" x2="0.9" y2="1">
      <stop offset="0" stop-color="#DDF9FF"/>
      <stop offset="0.35" stop-color="#75D8F5"/>
      <stop offset="1" stop-color="#2688C6"/>
    </linearGradient>
    <linearGradient id="tail" x1="0" y1="0" x2="1" y2="1">
      <stop offset="0" stop-color="#FFC846"/>
      <stop offset="1" stop-color="#ED6929"/>
    </linearGradient>
    <linearGradient id="rotor" x1="0" y1="0" x2="1" y2="0">
      <stop offset="0" stop-color="#243B57"/>
      <stop offset="0.5" stop-color="#4D6D8D"/>
      <stop offset="1" stop-color="#243B57"/>
    </linearGradient>
    <radialGradient id="hub" cx="35%" cy="30%" r="75%">
      <stop offset="0" stop-color="#FFF17D"/>
      <stop offset="0.5" stop-color="#FFB62E"/>
      <stop offset="1" stop-color="#D96822"/>
    </radialGradient>
  </defs>

  <g stroke="#102A43" stroke-linecap="round" stroke-linejoin="round">
    <path d="M478 327V390" fill="none" stroke-width="26"/>
    <path d="M188 314C303 297 411 291 512 294C624 297 735 306 846 321C865 324 878 339 875 356C872 373 857 382 838 379C724 365 616 358 511 357C402 357 296 363 195 376C176 378 160 367 158 350C156 333 169 317 188 314Z" fill="url(#rotor)" stroke-width="14"/>
    <ellipse cx="510" cy="337" rx="55" ry="38" fill="url(#hub)" stroke-width="14"/>

    <path d="M677 486L846 422L824 504L691 560Z" fill="url(#tail)" stroke-width="16"/>
    <path d="M826 422L872 368L886 441Z" fill="#FFCA45" stroke-width="14"/>
    <circle cx="861" cy="449" r="62" fill="#F9F4D7" stroke-width="15"/>
    <circle cx="861" cy="449" r="19" fill="url(#hub)" stroke-width="10"/>
    <path d="M861 389V509M801 449H921M819 407L903 491M903 407L819 491" fill="none" stroke-width="15"/>

    <path d="M327 439
             C377 393 452 376 547 385
             C639 393 703 434 727 493
             C745 536 731 588 689 627
             C648 665 581 683 495 680
             L408 676
             C325 672 261 642 232 591
             C201 536 219 485 275 457
             C291 449 308 443 327 439Z" fill="url(#body)" stroke-width="18"/>

    <path d="M324 439C363 407 416 389 483 386L482 556H241C246 509 274 470 324 439Z" fill="url(#cockpit)" stroke-width="15"/>
    <path d="M329 433C364 408 405 396 451 393C411 419 383 456 370 504H258C270 476 294 452 329 433Z" fill="#C7F2FC" stroke="none"/>
    <path d="M483 389V556" fill="none" stroke-width="14"/>

    <path d="M503 456C560 434 622 441 665 478" fill="none" stroke="#FFD45C" stroke-width="25"/>
    <circle cx="647" cy="564" r="33" fill="#FFD34E" stroke-width="12"/>
    <path d="M665 626C628 654 575 669 510 669" fill="none" stroke="#B82F25" stroke-width="15"/>

    <path d="M346 676L324 737M633 676L655 737" fill="none" stroke-width="18"/>
    <path d="M279 744C387 763 560 765 704 742" fill="none" stroke="#F6CB58" stroke-width="28"/>
    <path d="M279 744C387 763 560 765 704 742" fill="none" stroke-width="13"/>

    <path d="M705 509L787 489" fill="none" stroke="#FFD559" stroke-width="18"/>
  </g>

  <g fill="#FFF6C7" opacity="0.9">
    <path d="M202 255L211 277L234 285L211 293L202 315L193 293L170 285L193 277Z"/>
    <path d="M820 262L827 279L845 286L827 293L820 311L813 293L795 286L813 279Z"/>
  </g>
</svg>
